<?xml version="1.0" encoding="utf-8"?>
<!-- Generator: Adobe Illustrator 18.1.1, SVG Export Plug-In . SVG Version: 6.00 Build 0)  -->
<svg version="1.1" id="Layer_1" xmlns="http://www.w3.org/2000/svg" xmlns:xlink="http://www.w3.org/1999/xlink" x="0px" y="0px"
	 viewBox="0 0 431.4 424.4" enable-background="new 0 0 431.4 424.4" xml:space="preserve">
<g>
	<g>
		<g>
			<polygon fill="#FFFFFF" points="146.9,135.2 140.4,107.8 211.8,71.9 283.3,107.7 276.9,135.2 254.9,126.5 257,119.8 211.9,97.2 
				166.8,119.9 168.8,126.5 			"/>
		</g>
		<g>
			<polygon fill="#488FCC" points="211.9,238.2 159.8,185 150,147.8 172,139.1 180.2,173.6 211.9,205.9 243.6,173.5 251.7,139.1 
				273.7,147.7 264.1,184.9 			"/>
		</g>
	</g>
	<g>
		<path fill="#488FCC" d="M68.6,261.7h11.7L96,305l16.1-43.3h11L100,319h-8.8L68.6,261.7z"/>
		<path fill="#488FCC" d="M148.2,313.7H148c-1.4,2.2-3.2,3.8-5.3,4.8c-2.2,1-4.5,1.5-7.1,1.5c-1.8,0-3.5-0.2-5.2-0.7
			c-1.7-0.5-3.2-1.2-4.5-2.2c-1.3-1-2.4-2.2-3.2-3.6c-0.8-1.5-1.2-3.2-1.2-5.1c0-2.1,0.4-3.9,1.1-5.4c0.8-1.5,1.8-2.7,3-3.7
			c1.3-1,2.7-1.8,4.4-2.4c1.7-0.6,3.4-1,5.2-1.3c1.8-0.3,3.6-0.5,5.5-0.6c1.8-0.1,3.6-0.1,5.2-0.1h2.4v-1.1c0-2.4-0.8-4.2-2.5-5.5
			c-1.7-1.2-3.8-1.8-6.4-1.8c-2.1,0-4,0.4-5.7,1.1s-3.3,1.7-4.6,3l-5.1-5.1c2.2-2.2,4.7-3.8,7.6-4.8c2.9-1,5.9-1.5,8.9-1.5
			c2.8,0,5.1,0.3,7,0.9c1.9,0.6,3.5,1.4,4.7,2.4c1.2,1,2.2,2.1,2.9,3.4c0.7,1.3,1.2,2.5,1.5,3.8c0.3,1.3,0.5,2.5,0.5,3.8
			c0.1,1.2,0.1,2.3,0.1,3.2V319h-8.7V313.7z M147.6,301.6h-2c-1.3,0-2.9,0.1-4.5,0.2c-1.7,0.1-3.3,0.4-4.7,0.8
			c-1.5,0.4-2.7,1-3.8,1.8c-1,0.8-1.5,1.9-1.5,3.3c0,0.9,0.2,1.7,0.6,2.3c0.4,0.6,0.9,1.1,1.6,1.6c0.6,0.4,1.4,0.7,2.2,0.9
			c0.8,0.2,1.6,0.3,2.4,0.3c3.3,0,5.8-0.8,7.4-2.4c1.6-1.6,2.4-3.8,2.4-6.5V301.6z"/>
		<path fill="#488FCC" d="M202.8,319h-9.2v-6.2h-0.2c-0.9,1.9-2.3,3.6-4.2,5.1c-1.9,1.4-4.5,2.1-7.7,2.1c-2.6,0-4.8-0.4-6.6-1.3
			c-1.8-0.8-3.3-2-4.4-3.4c-1.1-1.4-1.9-3.1-2.4-4.9c-0.5-1.8-0.7-3.7-0.7-5.7v-24.5h9.7v19.7c0,1.1,0.1,2.3,0.2,3.6
			c0.1,1.3,0.4,2.6,0.8,3.7c0.5,1.2,1.2,2.1,2.1,2.9c0.9,0.8,2.3,1.2,4,1.2c1.6,0,3-0.3,4.1-0.8c1.1-0.5,2-1.3,2.8-2.2
			c0.7-0.9,1.3-2,1.6-3.2c0.3-1.2,0.5-2.4,0.5-3.7v-21.2h9.7V319z"/>
		<path fill="#488FCC" d="M214,257.8h9.7V319H214V257.8z"/>
		<path fill="#488FCC" d="M230.4,288.4v-8.3h8v-11.2h9.7v11.2h10.7v8.3h-10.7v17c0,1.9,0.4,3.5,1.1,4.6c0.7,1.1,2.2,1.7,4.3,1.7
			c0.9,0,1.8-0.1,2.8-0.3c1-0.2,1.8-0.5,2.4-0.9v8.2c-1,0.5-2.3,0.8-3.8,1c-1.5,0.2-2.8,0.3-3.9,0.3c-2.6,0-4.7-0.3-6.4-0.8
			c-1.6-0.6-2.9-1.4-3.9-2.6c-0.9-1.2-1.6-2.6-1.9-4.3c-0.4-1.7-0.5-3.7-0.5-6v-17.8H230.4z"/>
		<path fill="#488FCC" d="M266.4,313.3c0-1.7,0.6-3.2,1.9-4.5c1.3-1.2,2.8-1.9,4.6-1.9c1.7,0,3.2,0.6,4.5,1.8
			c1.3,1.2,1.9,2.6,1.9,4.4s-0.6,3.2-1.9,4.5c-1.3,1.2-2.8,1.9-4.6,1.9c-0.9,0-1.7-0.2-2.5-0.5c-0.8-0.3-1.5-0.8-2.1-1.3
			c-0.6-0.5-1.1-1.2-1.4-1.9C266.6,315,266.4,314.2,266.4,313.3z"/>
		<path fill="#FFFFFF" d="M289.2,267c0-1.6,0.6-2.9,1.7-4.1c1.2-1.2,2.6-1.7,4.4-1.7s3.3,0.6,4.5,1.7c1.2,1.1,1.8,2.5,1.8,4.2
			c0,1.7-0.6,3.1-1.8,4.2c-1.2,1.1-2.7,1.7-4.5,1.7s-3.3-0.6-4.4-1.7C289.7,269.9,289.2,268.5,289.2,267z M290.5,280.2h9.7V319h-9.7
			V280.2z"/>
		<path fill="#FFFFFF" d="M309.5,299.6c0-3.1,0.6-5.9,1.7-8.4c1.1-2.5,2.6-4.7,4.5-6.4c1.9-1.8,4.1-3.2,6.7-4.1
			c2.6-1,5.3-1.5,8.3-1.5s5.7,0.5,8.3,1.5c2.6,1,4.8,2.3,6.7,4.1s3.4,3.9,4.5,6.4c1.1,2.5,1.7,5.3,1.7,8.4c0,3.1-0.6,5.9-1.7,8.4
			c-1.1,2.5-2.6,4.7-4.5,6.4s-4.1,3.2-6.7,4.1c-2.6,1-5.3,1.5-8.3,1.5s-5.7-0.5-8.3-1.5c-2.6-1-4.8-2.3-6.7-4.1
			c-1.9-1.8-3.4-3.9-4.5-6.4C310,305.5,309.5,302.7,309.5,299.6z M319.2,299.6c0,1.5,0.3,3,0.8,4.4c0.5,1.4,1.3,2.6,2.3,3.7
			c1,1.1,2.2,1.9,3.6,2.6c1.4,0.6,3,1,4.8,1s3.4-0.3,4.8-1c1.4-0.6,2.6-1.5,3.6-2.6c1-1.1,1.8-2.3,2.3-3.7c0.5-1.4,0.8-2.9,0.8-4.4
			c0-1.5-0.3-3-0.8-4.4c-0.5-1.4-1.3-2.6-2.3-3.7c-1-1.1-2.2-1.9-3.6-2.6c-1.4-0.6-3-1-4.8-1s-3.4,0.3-4.8,1
			c-1.4,0.6-2.6,1.5-3.6,2.6c-1,1.1-1.8,2.3-2.3,3.7C319.4,296.6,319.2,298.1,319.2,299.6z"/>
	</g>
</g>
</svg>
