<?xml version="1.0" encoding="utf-8"?>
<!-- Generator: Adobe Illustrator 18.1.1, SVG Export Plug-In . SVG Version: 6.00 Build 0)  -->
<svg version="1.1" id="Layer_1" xmlns="http://www.w3.org/2000/svg" xmlns:xlink="http://www.w3.org/1999/xlink" x="0px" y="0px"
	 viewBox="0 0 413.7 160.6" enable-background="new 0 0 413.7 160.6" xml:space="preserve">
<g>
	<g>
		<polygon fill="#FFFFFF" points="6.2,61.1 0,34.7 68.9,0 138,34.6 131.7,61.1 110.5,52.7 112.5,46.3 69,24.5 25.5,46.3 27.4,52.7 
					"/>
	</g>
	<g>
		<polygon fill="#FFFFFF" points="69.1,160.6 18.7,109.2 9.3,73.2 30.5,64.8 38.4,98.1 69,129.3 99.6,98.1 107.5,64.9 128.7,73.2 
			119.4,109.1 		"/>
	</g>
</g>
<g>
	<path fill="#FFFFFF" d="M158.7,54.6h10.6l14.1,39l14.5-39h9.9l-20.8,51.6H179L158.7,54.6z"/>
	<path fill="#FFFFFF" d="M230.4,101.4h-0.2c-1.3,2-2.9,3.4-4.8,4.3c-1.9,0.9-4.1,1.3-6.4,1.3c-1.6,0-3.2-0.2-4.7-0.7
		c-1.5-0.4-2.9-1.1-4.1-2c-1.2-0.9-2.2-2-2.9-3.3c-0.7-1.3-1.1-2.8-1.1-4.6c0-1.9,0.3-3.5,1-4.8c0.7-1.3,1.6-2.5,2.7-3.4
		c1.1-0.9,2.5-1.6,4-2.2c1.5-0.5,3.1-0.9,4.7-1.2c1.6-0.3,3.3-0.4,4.9-0.5c1.7-0.1,3.2-0.1,4.7-0.1h2.2v-0.9c0-2.2-0.8-3.8-2.3-4.9
		c-1.5-1.1-3.4-1.6-5.8-1.6c-1.8,0-3.6,0.3-5.2,1c-1.6,0.7-3,1.5-4.2,2.7l-4.6-4.6c1.9-2,4.2-3.4,6.8-4.3c2.6-0.9,5.3-1.3,8.1-1.3
		c2.5,0,4.6,0.3,6.3,0.8c1.7,0.6,3.1,1.3,4.2,2.2c1.1,0.9,2,1.9,2.6,3c0.6,1.1,1,2.3,1.3,3.5s0.4,2.3,0.5,3.4c0,1.1,0.1,2.1,0.1,2.9
		v20.1h-7.9V101.4z M229.9,90.5h-1.8c-1.2,0-2.6,0-4.1,0.1c-1.5,0.1-2.9,0.3-4.3,0.7c-1.3,0.4-2.5,0.9-3.4,1.6
		c-0.9,0.7-1.4,1.7-1.4,3c0,0.8,0.2,1.5,0.5,2.1c0.4,0.6,0.8,1,1.4,1.4c0.6,0.4,1.2,0.7,2,0.8c0.7,0.2,1.5,0.3,2.2,0.3
		c3,0,5.2-0.7,6.7-2.2c1.4-1.4,2.1-3.4,2.1-5.9V90.5z"/>
	<path fill="#FFFFFF" d="M279.6,106.2h-8.3v-5.6h-0.1c-0.8,1.7-2.1,3.3-3.8,4.6c-1.7,1.3-4,1.9-6.9,1.9c-2.3,0-4.3-0.4-5.9-1.1
		c-1.6-0.8-3-1.8-4-3.1c-1-1.3-1.8-2.8-2.2-4.4c-0.4-1.7-0.7-3.4-0.7-5.2V71.2h8.7v17.7c0,1,0,2.1,0.1,3.2c0.1,1.2,0.4,2.3,0.8,3.4
		c0.4,1,1,1.9,1.9,2.6c0.9,0.7,2.1,1.1,3.6,1.1c1.5,0,2.7-0.2,3.7-0.7c1-0.5,1.8-1.1,2.5-2c0.7-0.8,1.1-1.8,1.4-2.8
		c0.3-1.1,0.4-2.2,0.4-3.4V71.2h8.7V106.2z"/>
	<path fill="#FFFFFF" d="M289.7,51.1h8.7v55.1h-8.7V51.1z"/>
	<path fill="#FFFFFF" d="M304.5,78.6v-7.4h7.2V61h8.7v10.1h9.6v7.4h-9.6v15.3c0,1.7,0.3,3.1,1,4.2c0.7,1,2,1.5,3.9,1.5
		c0.8,0,1.6-0.1,2.6-0.3c0.9-0.2,1.7-0.4,2.2-0.8v7.4c-0.9,0.4-2.1,0.7-3.4,0.9c-1.3,0.2-2.5,0.3-3.5,0.3c-2.3,0-4.2-0.3-5.7-0.8
		s-2.6-1.3-3.5-2.3c-0.9-1-1.4-2.3-1.8-3.9c-0.3-1.6-0.5-3.4-0.5-5.4v-16H304.5z"/>
	<path fill="#FFFFFF" d="M336.9,101.1c0-1.6,0.6-2.9,1.7-4c1.1-1.1,2.5-1.7,4.1-1.7c1.6,0,2.9,0.5,4.1,1.6c1.2,1.1,1.7,2.4,1.7,3.9
		c0,1.6-0.6,2.9-1.7,4c-1.1,1.1-2.5,1.7-4.1,1.7c-0.8,0-1.5-0.1-2.2-0.4c-0.7-0.3-1.3-0.7-1.9-1.2c-0.5-0.5-1-1.1-1.3-1.7
		C337.1,102.6,336.9,101.8,336.9,101.1z"/>
	<path fill="#FFFFFF" d="M357.4,59.3c0-1.4,0.5-2.6,1.6-3.7c1-1,2.4-1.6,4-1.6c1.6,0,3,0.5,4,1.5c1.1,1,1.6,2.2,1.6,3.8
		c0,1.5-0.5,2.8-1.6,3.8c-1.1,1-2.4,1.5-4,1.5c-1.6,0-2.9-0.5-4-1.6C357.9,61.9,357.4,60.7,357.4,59.3z M358.6,71.2h8.7v35h-8.7
		V71.2z"/>
	<path fill="#FFFFFF" d="M375.7,88.7c0-2.8,0.5-5.3,1.5-7.5c1-2.3,2.3-4.2,4-5.8c1.7-1.6,3.7-2.8,6.1-3.7c2.3-0.9,4.8-1.3,7.4-1.3
		c2.6,0,5.1,0.4,7.4,1.3c2.3,0.9,4.3,2.1,6.1,3.7c1.7,1.6,3,3.5,4,5.8c1,2.3,1.5,4.8,1.5,7.5c0,2.8-0.5,5.3-1.5,7.5
		c-1,2.3-2.3,4.2-4,5.8c-1.7,1.6-3.7,2.8-6.1,3.7c-2.3,0.9-4.8,1.3-7.4,1.3c-2.6,0-5.1-0.4-7.4-1.3c-2.3-0.9-4.4-2.1-6.1-3.7
		c-1.7-1.6-3.1-3.5-4-5.8C376.2,94,375.7,91.4,375.7,88.7z M384.4,88.7c0,1.4,0.2,2.7,0.7,3.9c0.5,1.3,1.1,2.4,2,3.4
		c0.9,1,2,1.7,3.2,2.3s2.7,0.9,4.3,0.9c1.6,0,3-0.3,4.3-0.9c1.3-0.6,2.3-1.4,3.2-2.3c0.9-1,1.6-2.1,2-3.4c0.5-1.3,0.7-2.6,0.7-3.9
		c0-1.4-0.2-2.7-0.7-3.9c-0.5-1.3-1.1-2.4-2-3.4c-0.9-1-2-1.7-3.2-2.3c-1.3-0.6-2.7-0.9-4.3-0.9c-1.6,0-3,0.3-4.3,0.9
		c-1.3,0.6-2.3,1.4-3.2,2.3c-0.9,1-1.6,2.1-2,3.4C384.7,86,384.4,87.3,384.4,88.7z"/>
</g>
</svg>
